<?xml version="1.0" encoding="UTF-8"?>
<svg version="1.1" xmlns="http://www.w3.org/2000/svg" width="150" height="150">
<path d="M0 0 C49.5 0 99 0 150 0 C150 49.5 150 99 150 150 C100.5 150 51 150 0 150 C0 100.5 0 51 0 0 Z " fill="#E5CC98" transform="translate(0,0)"/>
<path d="M0 0 C9.3741781 -0.89752769 16.20157567 0.61039785 24 6 C30.75783959 12.20284793 35.62320239 18.617177 36.2734375 27.90625 C36.78372559 44.07479008 31.38521528 54.18741942 22 67 C20.66131038 68.87117954 19.32744122 70.74582396 18 72.625 C17.443125 73.40101562 16.88625 74.17703125 16.3125 74.9765625 C13.34687822 79.54856274 13.66421082 84.49226775 13.37890625 89.7734375 C13.01535015 92.86928633 12.30159847 95.18601789 11 98 C10.01 98 9.02 98 8 98 C7.01 98.495 7.01 98.495 6 99 C3 98 3 98 0 96 C0.22816406 95.37351562 0.45632812 94.74703125 0.69140625 94.1015625 C0.97886719 93.28429687 1.26632813 92.46703125 1.5625 91.625 C1.85253906 90.81289062 2.14257812 90.00078125 2.44140625 89.1640625 C3.25973028 86.97232251 3.25973028 86.97232251 2 85 C0.95426181 75.15152899 2.08751092 68.88779793 8 61 C13.87632031 52.66081015 19.21190336 44.5608721 18 34 C16.38885468 28.91217268 14.76379786 25.58902058 10 23 C6.20543579 22.53965425 2.47045715 22.26477143 -1 24 C-1.65213292 26.02463255 -1.65213292 26.02463255 -2 28 C-1.46375 27.67 -0.9275 27.34 -0.375 27 C2.72046073 25.69664811 4.66574641 25.52367806 8 26 C11.61411022 28.97160174 13.59886973 31.19781853 14.2734375 35.91015625 C14.75732059 46.16475553 8.93480789 53.48241557 2.8671875 61.26171875 C-1.05195754 67.00925154 -2.45825936 72.41364445 -3.0625 79.1875 C-3.84076745 87.53268466 -3.84076745 87.53268466 -6 91 C-7.4606285 88.35261084 -8 87.10551666 -8 84 C-9.43750191 82.31201173 -9.43750191 82.31201173 -11 81 C-10.34 81 -9.68 81 -9 81 C-9 80.34 -9 79.68 -9 79 C-9.66 79 -10.32 79 -11 79 C-11.04125 78.38125 -11.0825 77.7625 -11.125 77.125 C-11.41375 76.42375 -11.7025 75.7225 -12 75 C-14.99615946 73.6954344 -14.99615946 73.6954344 -18 73 C-18.495 70.525 -18.495 70.525 -19 68 C-19.66 68 -20.32 68 -21 68 C-21 66.35 -21 64.7 -21 63 C-19.68 63.66 -18.36 64.32 -17 65 C-17.66 64.67 -18.32 64.34 -19 64 C-19.19431765 61.95966465 -19.38857488 59.91932344 -19.58203125 57.87890625 C-19.8328496 55.77378478 -19.8328496 55.77378478 -22.0625 54.5 C-22.701875 54.335 -23.34125 54.17 -24 54 C-23.505 51.03 -23.505 51.03 -23 48 C-22.01 48 -21.02 48 -20 48 C-20 45.36 -20 42.72 -20 40 C-19.01 39.505 -19.01 39.505 -18 39 C-18 41.64 -18 44.28 -18 47 C-16.68 47 -15.36 47 -14 47 C-14.33 44.36 -14.66 41.72 -15 39 C-12.8614515 41.1385485 -12.57344937 42.13275314 -12 45 C-11.34 44.34 -10.68 43.68 -10 43 C-9.67 43 -9.34 43 -9 43 C-9.33 41.35 -9.66 39.7 -10 38 C-11.32 37.67 -12.64 37.34 -14 37 C-14.33 35.68 -14.66 34.36 -15 33 C-15.66 33 -16.32 33 -17 33 C-16.625 31.0625 -16.625 31.0625 -16 29 C-15.34 28.67 -14.68 28.34 -14 28 C-13.67 27.01 -13.34 26.02 -13 25 C-13.66 25 -14.32 25 -15 25 C-13.61490685 19.76742587 -10.35914944 16.92673116 -6 14 C0.37846516 11.4941744 6.07135647 11.03750265 12.5 13.5 C18.69039637 16.46292476 23.30964063 21.70183151 26 28 C26.38749213 30.32495277 26.72982839 32.65851268 27 35 C27.99 35.33 28.98 35.66 30 36 C29.8314094 28.65864565 28.58217334 22.8737173 24 17 C21.50505499 14.68821563 18.90640263 12.76233162 16 11 C15.42894531 10.63003906 14.85789063 10.26007812 14.26953125 9.87890625 C10.85171407 8.55531096 7.37147351 8.52856071 3.75 8.375 C3.00492188 8.33632813 2.25984375 8.29765625 1.4921875 8.2578125 C-0.3381524 8.16394892 -2.16904143 8.08090282 -4 8 C-4 7.34 -4 6.68 -4 6 C-3.34 6 -2.68 6 -2 6 C-2 5.01 -2 4.02 -2 3 C-1.34 2.34 -0.68 1.68 0 1 C0 0.67 0 0.34 0 0 Z " fill="#EBD7A9" transform="translate(76,24)"/>
<path d="M0 0 C7.97060843 5.71452096 14.31555662 14.14507085 16.01953125 23.90625 C18.37256468 44.68017367 10.20433944 57.60475312 -2.21484375 73.65234375 C-5.88449496 78.72851833 -6.07163425 83.21854568 -6.34375 89.3984375 C-6.74013204 94.87261013 -7.97885566 98.9766935 -12.0078125 102.90234375 C-17.66373173 106.48902424 -21.8660317 107.36408758 -28.5703125 106.52734375 C-34.12968079 104.58314123 -37.95675758 100.75445358 -40.5703125 95.52734375 C-40.63981791 93.98710379 -40.65483607 92.44399387 -40.6328125 90.90234375 C-40.62378906 90.08507812 -40.61476563 89.2678125 -40.60546875 88.42578125 C-40.59386719 87.79929687 -40.58226562 87.1728125 -40.5703125 86.52734375 C-38.6640625 86.7578125 -38.6640625 86.7578125 -36.5703125 87.52734375 C-35.6640625 89.453125 -35.6640625 89.453125 -35.0703125 91.83984375 C-33.93613869 95.71699226 -32.89768401 98.03181512 -29.5703125 100.52734375 C-25.91743057 101.74497106 -23.41277114 101.91810226 -19.5703125 101.52734375 C-16.66288181 99.90850706 -14.09419701 97.97517002 -12.92578125 94.74609375 C-12.47332795 91.92198963 -12.37630401 89.13468179 -12.2578125 86.27734375 C-11.49450899 76.46344151 -7.44328886 71.26481454 -1.43603516 63.74853516 C5.75582131 54.53305376 10.60392042 44.55912399 10.6796875 32.77734375 C10.7003125 31.99101563 10.7209375 31.2046875 10.7421875 30.39453125 C10.80199668 21.39324933 7.20797839 15.28099832 1.4296875 8.52734375 C-5.51553928 1.7698258 -13.13797232 -0.05482868 -22.60986328 0.05078125 C-30.4887577 0.37790685 -38.04315152 2.69311827 -43.5703125 8.52734375 C-47.96492437 14.61812161 -50.37643301 20.12529094 -51.5703125 27.52734375 C-53.5078125 28.08984375 -53.5078125 28.08984375 -55.5703125 28.52734375 C-55.9003125 28.19734375 -56.2303125 27.86734375 -56.5703125 27.52734375 C-56.42835973 18.72627171 -53.38426199 11.73535444 -47.453125 5.19140625 C-33.98554251 -7.34416361 -16.26297528 -9.3178445 0 0 Z " fill="#2F2A21" transform="translate(100.5703125,24.47265625)"/>
<path d="M0 0 C0.33 0.66 0.66 1.32 1 2 C2.98 1.67 4.96 1.34 7 1 C7 1.99 7 2.98 7 4 C7.99 4.33 8.98 4.66 10 5 C9.01 5.495 9.01 5.495 8 6 C8 7.32 8 8.64 8 10 C9.32 9.01 10.64 8.02 12 7 C12.66 7.33 13.32 7.66 14 8 C13.34 8.66 12.68 9.32 12 10 C12.99 10.66 13.98 11.32 15 12 C14.62875 12.5775 14.2575 13.155 13.875 13.75 C12.74144721 15.94800572 12.74144721 15.94800572 13.6875 18 C15.0461742 20.07036069 16.47009126 22.05284343 18 24 C18 22.68 18 21.36 18 20 C18.66 20 19.32 20 20 20 C19.67 18.02 19.34 16.04 19 14 C18.01 14 17.02 14 16 14 C16.33 12.02 16.66 10.04 17 8 C18.98 7.67 20.96 7.34 23 7 C23.33 8.98 23.66 10.96 24 13 C24.66 13 25.32 13 26 13 C26 10.36 26 7.72 26 5 C26.33 5 26.66 5 27 5 C27 7.97 27 10.94 27 14 C25.68 14 24.36 14 23 14 C23.33 14.66 23.66 15.32 24 16 C24.4125 16.99 24.825 17.98 25.25 19 C27.29526217 22.50616372 28.39238276 22.57594056 32 24 C32.8125 26.625 32.8125 26.625 33 29 C32.34 29 31.68 29 31 29 C31 29.99 31 30.98 31 32 C29.9275 32.144375 28.855 32.28875 27.75 32.4375 C24.21527402 32.89433176 24.21527402 32.89433176 21.6875 33.625 C20 34 20 34 18 33 C18 31.35 18 29.7 18 28 C17.67 29.65 17.34 31.3 17 33 C15.68 33 14.36 33 13 33 C11.64631404 34.31266518 10.31200404 35.64567325 9 37 C8.01 37 7.02 37 6 37 C5.67 36.34 5.34 35.68 5 35 C4.54625 35.495 4.0925 35.99 3.625 36.5 C2 38 2 38 0 38 C-0.08086147 36.20906809 -0.13912702 34.41710372 -0.1875 32.625 C-0.22230469 31.62726563 -0.25710937 30.62953125 -0.29296875 29.6015625 C-0.14794922 28.31378906 -0.14794922 28.31378906 0 27 C0.99 26.34 1.98 25.68 3 25 C2.67 24.01 2.34 23.02 2 22 C1.34 21.67 0.68 21.34 0 21 C0 17.23312136 0.23537317 16.08809695 2 13 C1.67 12.67 1.34 12.34 1 12 C1 10.68 1 9.36 1 8 C0.34 7.67 -0.32 7.34 -1 7 C-0.34 7 0.32 7 1 7 C0.34 5.02 -0.32 3.04 -1 1 C-0.67 0.67 -0.34 0.34 0 0 Z " fill="#DFCA97" transform="translate(33,75)"/>
<path d="M0 0 C5.07273942 3.10000742 7.27613072 6.34953959 9 12 C10.47982091 22.91367918 4.31263591 31.8687163 -1.82397461 40.34326172 C-6.71731537 47.21114478 -8.24788091 53.72669001 -9 62 C-10.32 62 -11.64 62 -13 62 C-13.10968629 60.00127206 -13.18634064 58.00072285 -13.25 56 C-13.31960937 54.329375 -13.31960937 54.329375 -13.390625 52.625 C-12.59105879 45.20502554 -8.04180727 39.31542264 -3.875 33.3125 C1.08404524 26.1630893 3.79064095 20.89067684 3 12 C1.91050088 8.06104164 1.47294006 7.31529337 -2 5 C-5.5382677 4.77415313 -8.60907078 4.95663716 -12 6 C-11.625 3.5625 -11.625 3.5625 -11 1 C-7.50371579 -0.7481421 -3.81498182 -0.55875996 0 0 Z " fill="#353025" transform="translate(86,46)"/>
<path d="M0 0 C9.3741781 -0.89752769 16.20157567 0.61039785 24 6 C28.45614111 10.09017783 32.19572424 14.62218003 35 20 C34.1875 22.3125 34.1875 22.3125 33 24 C32.34 24 31.68 24 31 24 C31.2784375 25.051875 31.2784375 25.051875 31.5625 26.125 C32.05156976 29.33888698 31.66231558 31.83560336 31 35 C30.67 35 30.34 35 30 35 C29.938125 33.700625 29.87625 32.40125 29.8125 31.0625 C29.07606244 24.73311773 26.73931519 19.54364982 22.03125 15.171875 C20.06756963 13.6624789 18.11734762 12.28387877 16 11 C15.42894531 10.63003906 14.85789062 10.26007812 14.26953125 9.87890625 C10.85171407 8.55531096 7.37147351 8.52856071 3.75 8.375 C3.00492187 8.33632813 2.25984375 8.29765625 1.4921875 8.2578125 C-0.3381524 8.16394892 -2.16904143 8.08090282 -4 8 C-4 7.34 -4 6.68 -4 6 C-3.34 6 -2.68 6 -2 6 C-2 5.01 -2 4.02 -2 3 C-1.34 2.34 -0.68 1.68 0 1 C0 0.67 0 0.34 0 0 Z " fill="#E5D3A7" transform="translate(76,24)"/>
<path d="M0 0 C5.7248155 3.9979859 10.00753027 8.72455652 12.4375 15.375 C12.66890908 18.72540096 12.61635316 22.02315936 12.4375 25.375 C11.1175 25.045 9.7975 24.715 8.4375 24.375 C8.29054688 23.50488281 8.29054688 23.50488281 8.140625 22.6171875 C6.56177823 14.36907419 3.36155871 9.36032227 -3.5625 4.375 C-9.16194493 1.87312035 -14.08748282 1.93303265 -20.0625 3 C-27.28953627 5.83919282 -31.15594987 10.56189975 -34.5625 17.375 C-35.8825 17.045 -37.2025 16.715 -38.5625 16.375 C-38.22460387 10.96866189 -35.14894696 7.19283063 -31.5625 3.375 C-22.65603264 -3.5826434 -10.16541544 -5.85466784 0 0 Z " fill="#332E23" transform="translate(93.5625,34.625)"/>
<path d="M0 0 C0.33 0 0.66 0 1 0 C1.33 2.64 1.66 5.28 2 8 C2.66 8 3.32 8 4 8 C4.33 5.36 4.66 2.72 5 0 C5.33 0 5.66 0 6 0 C6.06058594 0.60328125 6.12117188 1.2065625 6.18359375 1.828125 C6.26738281 2.62734375 6.35117188 3.4265625 6.4375 4.25 C6.55931641 5.43335937 6.55931641 5.43335937 6.68359375 6.640625 C6.93268136 8.97630042 6.93268136 8.97630042 7.625 11.0625 C8.28817348 14.48889629 6.4726036 16.93698452 5 20 C5.99 20 6.98 20 8 20 C8 20.66 8 21.32 8 22 C9.65 21.34 11.3 20.68 13 20 C12.6875 22.375 12.6875 22.375 12 25 C8.27420911 27.48386059 6.41288598 27.3804212 2 27 C-0.6875 25.75 -0.6875 25.75 -3 24 C-3.763125 23.46375 -4.52625 22.9275 -5.3125 22.375 C-7.86873883 18.77733053 -7.32902307 15.27729989 -7 11 C-5.68 11 -4.36 11 -3 11 C-2.67 11.99 -2.34 12.98 -2 14 C-0.99740493 10.99221479 -0.69685358 8.46179353 -0.4375 5.3125 C-0.35371094 4.31863281 -0.26992187 3.32476562 -0.18359375 2.30078125 C-0.12300781 1.54152344 -0.06242187 0.78226562 0 0 Z " fill="#E6D4A6" transform="translate(72,100)"/>
<path d="M0 0 C0.66 0 1.32 0 2 0 C2 0.66 2 1.32 2 2 C5.75670331 2.96600942 8.24249781 2.77076968 12 2 C14.3125 2.4375 14.3125 2.4375 16 3 C16 4.32 16 5.64 16 7 C16.66 7 17.32 7 18 7 C17.25 9.4375 17.25 9.4375 16 12 C13.07083439 13.32284898 12.12177395 13.04059132 9 12 C8.71125 12.969375 8.4225 13.93875 8.125 14.9375 C7 18 7 18 5 19 C4.67 18.34 4.34 17.68 4 17 C3.01 16.67 2.02 16.34 1 16 C0.01 15.67 -0.98 15.34 -2 15 C-3.59472187 11.81055627 -3.38490832 8.47081121 -3 5 C-1.625 2 -1.625 2 0 0 Z " fill="#B6A273" transform="translate(36,59)"/>
<path d="M0 0 C1.90625 0.23046875 1.90625 0.23046875 4 1 C4.90625 2.92578125 4.90625 2.92578125 5.5 5.3125 C6.63417381 9.18964851 7.67262849 11.50447137 11 14 C14.01490557 15.00496852 16.04181692 15.10335303 19.1875 15.0625 C20.08855469 15.05347656 20.98960938 15.04445313 21.91796875 15.03515625 C22.94857422 15.01775391 22.94857422 15.01775391 24 15 C24.33 15.99 24.66 16.98 25 18 C20.7277228 20.8481848 17.01454159 20.61729159 12 20 C6.44049971 18.05941971 2.6127191 14.22543819 0 9 C-0.06950541 7.45976004 -0.08452357 5.91665012 -0.0625 4.375 C-0.05347656 3.55773437 -0.04445312 2.74046875 -0.03515625 1.8984375 C-0.02355469 1.27195312 -0.01195312 0.64546875 0 0 Z " fill="#30291C" transform="translate(60,111)"/>
<path d="M0 0 C0.66 0 1.32 0 2 0 C2 0.66 2 1.32 2 2 C4.95760593 4.05389301 7.53617575 5.16390449 11 6 C13 8 13 8 13 12 C14.32 12.66 15.64 13.32 17 14 C16.814375 14.61875 16.62875 15.2375 16.4375 15.875 C15.76313824 18.04160178 15.76313824 18.04160178 17 20 C17.99 20 18.98 20 20 20 C20.33 20.99 20.66 21.98 21 23 C19.68 24.32 18.36 25.64 17 27 C16.63648437 26.28714844 16.27296875 25.57429688 15.8984375 24.83984375 C10.65957179 14.85913293 5.66276099 8.862075 -4 3 C-2.68 2.67 -1.36 2.34 0 2 C0 1.34 0 0.68 0 0 Z " fill="#EAD9B2" transform="translate(99,19)"/>
<path d="M0 0 C-1.32 0.33 -2.64 0.66 -4 1 C-3.24849977 4.27773504 -3.24849977 4.27773504 0 6 C-0.804375 6.12375 -1.60875 6.2475 -2.4375 6.375 C-3.283125 6.58125 -4.12875 6.7875 -5 7 C-5.33 7.66 -5.66 8.32 -6 9 C-3.03 9 -0.06 9 3 9 C2.67 9.66 2.34 10.32 2 11 C1.06027344 10.98259766 1.06027344 10.98259766 0.1015625 10.96484375 C-1.12433594 10.95130859 -1.12433594 10.95130859 -2.375 10.9375 C-3.59316406 10.92009766 -3.59316406 10.92009766 -4.8359375 10.90234375 C-7.04937142 10.85533666 -7.04937142 10.85533666 -9 12 C-9.99 13.485 -9.99 13.485 -11 15 C-11.33 13.35 -11.66 11.7 -12 10 C-10.68 9.34 -9.36 8.68 -8 8 C-8.66 7.01 -9.32 6.02 -10 5 C-11.98 7.31 -13.96 9.62 -16 12 C-17.98 11.34 -19.96 10.68 -22 10 C-18.40164895 5.37354865 -15.44624843 1.99759823 -9.625 0.3125 C-6.40032365 -0.07139004 -3.24413857 -0.06361056 0 0 Z " fill="#E3D0A2" transform="translate(84,36)"/>
<path d="M0 0 C0.33 0 0.66 0 1 0 C0.58193883 9.4063764 -5.20308989 17.1053387 -10.41015625 24.63671875 C-12 26 -12 26 -14.68359375 26.20703125 C-15.44800781 26.13871094 -16.21242188 26.07039063 -17 26 C-15.66545957 22.27385742 -13.99161713 19.41237923 -11.625 16.25 C-8.36865453 11.72238813 -6.01725912 7.18723773 -4 2 C-2.68 2 -1.36 2 0 2 C0 1.34 0 0.68 0 0 Z " fill="#332E25" transform="translate(114,67)"/>
<path d="M0 0 C0.33 0 0.66 0 1 0 C1.25523438 0.99580078 1.25523438 0.99580078 1.515625 2.01171875 C3.12661732 7.8815578 4.42921228 12.56424225 9.68359375 16.1484375 C14.93920212 19.13049295 20.0267088 19.75519298 26 20 C25.67 20.99 25.34 21.98 25 23 C20.97967476 24.06420374 18.05844983 23.76095934 14 23 C13.113125 23.061875 12.22625 23.12375 11.3125 23.1875 C9 23 9 23 7.25 21.1875 C6 19 6 19 5 16 C3.05396726 15.40929986 3.05396726 15.40929986 1 15 C0.34 14.34 -0.32 13.68 -1 13 C-1.66 12.67 -2.32 12.34 -3 12 C-2.34 11.01 -1.68 10.02 -1 9 C-0.54605448 6.72087062 -0.54605448 6.72087062 -0.375 4.3125 C-0.30023438 3.50425781 -0.22546875 2.69601563 -0.1484375 1.86328125 C-0.09945312 1.24839844 -0.05046875 0.63351563 0 0 Z " fill="#E5D2A8" transform="translate(58,112)"/>
<path d="M0 0 C1.9375 0.25 1.9375 0.25 4 1 C4.66 1.99 5.32 2.98 6 4 C7.918125 3.8453125 7.918125 3.8453125 9.875 3.6875 C10.59429687 3.62949219 11.31359375 3.57148437 12.0546875 3.51171875 C14.39519216 3.12606964 14.39519216 3.12606964 16 0 C16 2.31 16 4.62 16 7 C14.68 7 13.36 7 12 7 C10.64631404 8.31266518 9.31200404 9.64567325 8 11 C7.01 11 6.02 11 5 11 C4.67 10.34 4.34 9.68 4 9 C3.54625 9.495 3.0925 9.99 2.625 10.5 C1 12 1 12 -1 12 C-1.02687279 10.18757948 -1.04633715 8.37504767 -1.0625 6.5625 C-1.07410156 5.55316406 -1.08570313 4.54382813 -1.09765625 3.50390625 C-1 1 -1 1 0 0 Z " fill="#8D7C5C" transform="translate(34,101)"/>
<path d="M0 0 C1.65 0.33 3.3 0.66 5 1 C4.67 2.32 4.34 3.64 4 5 C5.65 5.33 7.3 5.66 9 6 C9.66 8.64 10.32 11.28 11 14 C10.01 13.34 9.02 12.68 8 12 C7.01 13.485 7.01 13.485 6 15 C5.34 13.02 4.68 11.04 4 9 C4 10.98 4 12.96 4 15 C2.68 15 1.36 15 0 15 C-0.33 12.69 -0.66 10.38 -1 8 C-1.33 10.64 -1.66 13.28 -2 16 C-2.33 16 -2.66 16 -3 16 C-3.66 13.03 -4.32 10.06 -5 7 C-4.01 7 -3.02 7 -2 7 C-1.34 4.69 -0.68 2.38 0 0 Z " fill="#AE9C6E" transform="translate(58,56)"/>
<path d="M0 0 C1.65 0.33 3.3 0.66 5 1 C5.33 2.65 5.66 4.3 6 6 C5.34 6 4.68 6 4 6 C4 6.99 4 7.98 4 9 C2.9275 9.144375 1.855 9.28875 0.75 9.4375 C-2.78472598 9.89433176 -2.78472598 9.89433176 -5.3125 10.625 C-7 11 -7 11 -9 10 C-8.67 8.02 -8.34 6.04 -8 4 C-7.01 4 -6.02 4 -5 4 C-5.33 4.66 -5.66 5.32 -6 6 C-5.34 6 -4.68 6 -4 6 C-3.67 5.01 -3.34 4.02 -3 3 C-2.01 2.67 -1.02 2.34 0 2 C0 1.34 0 0.68 0 0 Z " fill="#6A5D3E" transform="translate(60,98)"/>
<path d="M0 0 C0.33 0 0.66 0 1 0 C1.33 4.62 1.66 9.24 2 14 C2.66 14 3.32 14 4 14 C3.4975516 18.39642348 2.02704059 20.7948982 -1 24 C-1.99 24.33 -2.98 24.66 -4 25 C-4.33 24.01 -4.66 23.02 -5 22 C-5.66 21.67 -6.32 21.34 -7 21 C-6.195625 20.4225 -5.39125 19.845 -4.5625 19.25 C-0.39312278 15.58908342 -0.81384525 11.62636074 -0.4375 6.25 C-0.35371094 5.07953125 -0.26992187 3.9090625 -0.18359375 2.703125 C-0.12300781 1.81109375 -0.06242187 0.9190625 0 0 Z " fill="#322C22" transform="translate(89,104)"/>
<path d="M0 0 C1.32 1.32 2.64 2.64 4 4 C3 6 2 8 1 10 C-1.5625 10.625 -1.5625 10.625 -4 11 C-4.33 12.32 -4.66 13.64 -5 15 C-5 14.01 -5 13.02 -5 12 C-5.99 12.33 -6.98 12.66 -8 13 C-6.40956621 7.91061189 -3.2553049 4.12543357 0 0 Z " fill="#E9D7B2" transform="translate(108,84)"/>
<path d="M0 0 C1.19109375 -0.00386719 1.19109375 -0.00386719 2.40625 -0.0078125 C4.5 0.125 4.5 0.125 6.5 1.125 C7.25 3.0625 7.25 3.0625 7.5 5.125 C6.84 5.785 6.18 6.445 5.5 7.125 C4.51 6.465 3.52 5.805 2.5 5.125 C-1.0382677 4.89915313 -4.10907078 5.08163716 -7.5 6.125 C-7.125 3.6875 -7.125 3.6875 -6.5 1.125 C-4.13386544 -0.05806728 -2.63219264 -0.00854608 0 0 Z " fill="#2B2619" transform="translate(81.5,45.875)"/>
<path d="M0 0 C0.33 0 0.66 0 1 0 C1 2.97 1 5.94 1 9 C-0.32 9 -1.64 9 -3 9 C-3.66 10.32 -4.32 11.64 -5 13 C-5.66 11.68 -6.32 10.36 -7 9 C-7.99 9 -8.98 9 -10 9 C-9.67 7.02 -9.34 5.04 -9 3 C-7.02 2.67 -5.04 2.34 -3 2 C-2.67 3.98 -2.34 5.96 -2 8 C-1.34 8 -0.68 8 0 8 C0 5.36 0 2.72 0 0 Z " fill="#9C8D66" transform="translate(59,80)"/>
<path d="M0 0 C3.465 1.485 3.465 1.485 7 3 C6.67 3.99 6.34 4.98 6 6 C5.67 6 5.34 6 5 6 C4.67 7.32 4.34 8.64 4 10 C0.25 11.125 0.25 11.125 -2 10 C-1.85950482 8.52031676 -1.71245174 7.04125484 -1.5625 5.5625 C-1.48128906 4.73878906 -1.40007813 3.91507812 -1.31640625 3.06640625 C-1 1 -1 1 0 0 Z " fill="#DDC89E" transform="translate(36,62)"/>
<path d="M0 0 C-1.32 0.33 -2.64 0.66 -4 1 C-3.24849977 4.27773504 -3.24849977 4.27773504 0 6 C-0.804375 6.12375 -1.60875 6.2475 -2.4375 6.375 C-3.7059375 6.684375 -3.7059375 6.684375 -5 7 C-5.33 7.66 -5.66 8.32 -6 9 C-3.03 9 -0.06 9 3 9 C2.67 9.66 2.34 10.32 2 11 C1.06027344 10.98259766 1.06027344 10.98259766 0.1015625 10.96484375 C-1.12433594 10.95130859 -1.12433594 10.95130859 -2.375 10.9375 C-3.59316406 10.92009766 -3.59316406 10.92009766 -4.8359375 10.90234375 C-7.04937142 10.85533666 -7.04937142 10.85533666 -9 12 C-9.66 12.99 -10.32 13.98 -11 15 C-11.33 13.35 -11.66 11.7 -12 10 C-11.360625 9.773125 -10.72125 9.54625 -10.0625 9.3125 C-7.72806339 8.14749104 -7.72806339 8.14749104 -7.25 5.375 C-7.1675 4.59125 -7.085 3.8075 -7 3 C-8.65 2.67 -10.3 2.34 -12 2 C-12 1.67 -12 1.34 -12 1 C-7.9472484 0.01751476 -4.16138263 -0.08159574 0 0 Z " fill="#D5C497" transform="translate(84,36)"/>
<path d="M0 0 C0.33 0 0.66 0 1 0 C1 1.65 1 3.3 1 5 C2.32 4.01 3.64 3.02 5 2 C5.66 2.33 6.32 2.66 7 3 C6.34 3.66 5.68 4.32 5 5 C5.99 5.66 6.98 6.32 8 7 C7.649375 7.598125 7.29875 8.19625 6.9375 8.8125 C5.66695302 11.10813214 5.66695302 11.10813214 7 14 C6.01 14 5.02 14 4 14 C3.87625 13.030625 3.7525 12.06125 3.625 11.0625 C3.315625 9.5465625 3.315625 9.5465625 3 8 C2.34 7.67 1.68 7.34 1 7 C1 9.64 1 12.28 1 15 C0.34 15 -0.32 15 -1 15 C-1.144375 14.21625 -1.28875 13.4325 -1.4375 12.625 C-1.87798925 10.03578982 -1.87798925 10.03578982 -3 8 C-2.34 7.67 -1.68 7.34 -1 7 C-0.59270772 4.67843403 -0.25561323 2.3431213 0 0 Z " fill="#8F7C51" transform="translate(40,80)"/>
<path d="M0 0 C1.81643761 3.11389304 2.2719038 5.40777709 2.25 9 C2.25515625 9.845625 2.2603125 10.69125 2.265625 11.5625 C1.98531155 14.13478811 1.2948187 15.7803108 0 18 C-0.66 18 -1.32 18 -2 18 C-2 12.39 -2 6.78 -2 1 C-1.34 0.67 -0.68 0.34 0 0 Z " fill="#221F17" transform="translate(115,48)"/>
<path d="M0 0 C1.11761719 -0.00515625 2.23523438 -0.0103125 3.38671875 -0.015625 C6.3125 0.25 6.3125 0.25 9.3125 2.25 C2.8775 2.745 2.8775 2.745 -3.6875 3.25 C-0.7175 3.58 2.2525 3.91 5.3125 4.25 C5.3125 4.58 5.3125 4.91 5.3125 5.25 C3.06256641 5.27707139 0.81253905 5.29642829 -1.4375 5.3125 C-2.69046875 5.32410156 -3.9434375 5.33570313 -5.234375 5.34765625 C-7.97286501 5.27021027 -10.10630293 5.07780815 -12.6875 4.25 C-12.6875 3.59 -12.6875 2.93 -12.6875 2.25 C-8.31563871 0.58326922 -4.6729481 -0.0217094 0 0 Z " fill="#3C3529" transform="translate(78.6875,18.75)"/>
<path d="M0 0 C2.64 0.33 5.28 0.66 8 1 C8.12375 1.804375 8.2475 2.60875 8.375 3.4375 C8.58125 4.283125 8.7875 5.12875 9 6 C9.66 6.33 10.32 6.66 11 7 C4.375 8.125 4.375 8.125 1 7 C0.67 4.69 0.34 2.38 0 0 Z " fill="#ECD8AD" transform="translate(84,25)"/>
<path d="M0 0 C2 3 2 3 1.6875 6.5625 C1 10 1 10 0 12 C0.99 12.33 1.98 12.66 3 13 C3 13.66 3 14.32 3 15 C0.69 15.33 -1.62 15.66 -4 16 C-4.6319296 9.99666876 -2.37544123 5.36595205 0 0 Z " fill="#EDDDB7" transform="translate(117,64)"/>
<path d="M0 0 C3.96 0 7.92 0 12 0 C12.33 0.99 12.66 1.98 13 3 C9.68629 5.20914 8.6553979 5.22481553 4.8125 5.125 C3.91144531 5.10695312 3.01039062 5.08890625 2.08203125 5.0703125 C1.39496094 5.04710937 0.70789063 5.02390625 0 5 C-0.33 4.01 -0.66 3.02 -1 2 C-0.67 1.34 -0.34 0.68 0 0 Z " fill="#282117" transform="translate(72,126)"/>
<path d="M0 0 C0.33 0 0.66 0 1 0 C0.88581333 2.58422459 0.75907638 5.16679513 0.625 7.75 C0.5940625 8.47960937 0.563125 9.20921875 0.53125 9.9609375 C0.3251506 13.73942656 0.08487157 16.77946668 -2 20 C-3.4606285 17.35261084 -4 16.10551666 -4 13 C-5.43750191 11.31201173 -5.43750191 11.31201173 -7 10 C-6.34 10 -5.68 10 -5 10 C-5.33 9.01 -5.66 8.02 -6 7 C-5.01 7.33 -4.02 7.66 -3 8 C-2.67 8.99 -2.34 9.98 -2 11 C-2.061875 9.39125 -2.061875 9.39125 -2.125 7.75 C-2.0114175 4.34252515 -1.78726636 2.79260369 0 0 Z " fill="#EDDBB1" transform="translate(72,95)"/>
<path d="M0 0 C0.33 1.32 0.66 2.64 1 4 C-5.93 3.34 -12.86 2.68 -20 2 C-19.67 1.34 -19.34 0.68 -19 0 C-16.34472249 -0.34156254 -13.79160147 -0.55996689 -11.125 -0.6875 C-10.02478516 -0.75807617 -10.02478516 -0.75807617 -8.90234375 -0.83007812 C-5.6156314 -1.01267326 -3.15018699 -1.05006233 0 0 Z " fill="#26231C" transform="translate(91,21)"/>
<path d="M0 0 C1.98 0 3.96 0 6 0 C7.22080679 5.37154989 7.22080679 5.37154989 6.1875 8.3125 C5 10 5 10 3 11 C2.67 10.34 2.34 9.68 2 9 C0.02111039 8.27306096 -1.97954558 7.60183749 -4 7 C-4 6.34 -4 5.68 -4 5 C-2.35 5 -0.7 5 1 5 C1.66 3.68 2.32 2.36 3 1 C1.68 1.33 0.36 1.66 -1 2 C-0.67 1.34 -0.34 0.68 0 0 Z " fill="#9D8859" transform="translate(38,67)"/>
<path d="M0 0 C0 0.33 0 0.66 0 1 C2.97 1.495 2.97 1.495 6 2 C6 2.33 6 2.66 6 3 C4.08654673 3.53251766 2.1690705 4.05059483 0.25 4.5625 C-0.81734375 4.85253906 -1.8846875 5.14257812 -2.984375 5.44140625 C-5.84335927 5.97098494 -7.31597383 5.98370862 -10 5 C-10 4.01 -10 3.02 -10 2 C-6.5980513 -0.09350689 -3.94727588 -0.17942163 0 0 Z " fill="#2B2519" transform="translate(76,33)"/>
<path d="M0 0 C3.3 0.33 6.6 0.66 10 1 C9.34 2.32 8.68 3.64 8 5 C7.01 5 6.02 5 5 5 C5 5.66 5 6.32 5 7 C2.69 7 0.38 7 -2 7 C-1.67 6.34 -1.34 5.68 -1 5 C0.32 5 1.64 5 3 5 C2.01 4.34 1.02 3.68 0 3 C0 2.01 0 1.02 0 0 Z " fill="#E9D4A4" transform="translate(80,37)"/>
<path d="M0 0 C1.67542976 0.28604898 3.34385343 0.61781233 5 1 C5.33 2.98 5.66 4.96 6 7 C5.01 6.67 4.02 6.34 3 6 C2.67 5.34 2.34 4.68 2 4 C-0.05270463 5.84188612 -0.05270463 5.84188612 -1 8 C-1.99 7.67 -2.98 7.34 -4 7 C-4 5.02 -4 3.04 -4 1 C-3.01 1 -2.02 1 -1 1 C-0.67 0.67 -0.34 0.34 0 0 Z " fill="#D1BB83" transform="translate(49,54)"/>
<path d="M0 0 C1.32 0 2.64 0 4 0 C3.67 0.99 3.34 1.98 3 3 C4.32 4.32 5.64 5.64 7 7 C5.35 7.33 3.7 7.66 2 8 C2 9.98 2 11.96 2 14 C1.67 14 1.34 14 1 14 C0.83723958 11.98177083 0.67447917 9.96354167 0.51171875 7.9453125 C0.12606964 5.60480784 0.12606964 5.60480784 -3 4 C-2.34 3.01 -1.68 2.02 -1 1 C-1 1.99 -1 2.98 -1 4 C-0.67 2.68 -0.34 1.36 0 0 Z " fill="#D6C69C" transform="translate(63,103)"/>
<path d="M0 0 C2.49505962 2.49505962 2.35948376 3.67328888 2.625 7.125 C2.69976562 8.03507812 2.77453125 8.94515625 2.8515625 9.8828125 C2.90054688 10.58148438 2.94953125 11.28015625 3 12 C1.0625 12.5625 1.0625 12.5625 -1 13 C-1.33 12.67 -1.66 12.34 -2 12 C-1.9140625 10.0390625 -1.9140625 10.0390625 -1.625 7.625 C-1.48964844 6.43777344 -1.48964844 6.43777344 -1.3515625 5.2265625 C-1 3 -1 3 0 0 Z " fill="#3C3325" transform="translate(46,40)"/>
<path d="M0 0 C0.25 7.625 0.25 7.625 -2 11 C-3.32 11 -4.64 11 -6 11 C-5.67 7.7 -5.34 4.4 -5 1 C-2 0 -2 0 0 0 Z " fill="#383426" transform="translate(95,58)"/>
<path d="M0 0 C0.66 0 1.32 0 2 0 C2.17942163 3.94727588 2.09350689 6.5980513 0 10 C-1.32 9.67 -2.64 9.34 -4 9 C-3.4739075 5.21213403 -2.61896089 2.82847776 0 0 Z " fill="#2B2516" transform="translate(59,42)"/>
<path d="M0 0 C0.66 0.33 1.32 0.66 2 1 C1.67 1.66 1.34 2.32 1 3 C1.66 3 2.32 3 3 3 C3.66 2.01 4.32 1.02 5 0 C5.125 2.875 5.125 2.875 5 6 C4.34 6.66 3.68 7.32 3 8 C0.375 7.625 0.375 7.625 -2 7 C-1.125 1.125 -1.125 1.125 0 0 Z " fill="#948562" transform="translate(53,101)"/>
<path d="M0 0 C1.98 0 3.96 0 6 0 C6.33 2.64 6.66 5.28 7 8 C4.03 7.505 4.03 7.505 1 7 C0.67 4.69 0.34 2.38 0 0 Z " fill="#C9AC72" transform="translate(4,112)"/>
<path d="M0 0 C0.33 0 0.66 0 1 0 C1.33 2.64 1.66 5.28 2 8 C2.66 8 3.32 8 4 8 C4.33 5.36 4.66 2.72 5 0 C5.33 0 5.66 0 6 0 C6.33 3.96 6.66 7.92 7 12 C5.02 12 3.04 12 1 12 C0 11 0 11 -0.09765625 8.49609375 C-0.08605469 7.48675781 -0.07445313 6.47742188 -0.0625 5.4375 C-0.05347656 4.42558594 -0.04445313 3.41367188 -0.03515625 2.37109375 C-0.02355469 1.58863281 -0.01195313 0.80617188 0 0 Z " fill="#CABB99" transform="translate(72,100)"/>
<path d="M0 0 C1 4 1 4 0.3125 6.0625 C-1.18464888 8.27257692 -2.79042813 9.52695209 -5 11 C-5.33 10.01 -5.66 9.02 -6 8 C-6.66 7.67 -7.32 7.34 -8 7 C-5.36 4.69 -2.72 2.38 0 0 Z " fill="#332E21" transform="translate(60,24)"/>
<path d="M0 0 C0.66 0.66 1.32 1.32 2 2 C-0.97 1.505 -0.97 1.505 -4 1 C-4 2.32 -4 3.64 -4 5 C-3.34 5.33 -2.68 5.66 -2 6 C-2.33 6.66 -2.66 7.32 -3 8 C-5.64 8 -8.28 8 -11 8 C-9.68 7.34 -8.36 6.68 -7 6 C-7.33 4.35 -7.66 2.7 -8 1 C-5.23749964 -0.38125018 -3.05268901 -0.19079306 0 0 Z " fill="#D7C69D" transform="translate(88,24)"/>
<path d="M0 0 C0 0.66 0 1.32 0 2 C0.66 2.33 1.32 2.66 2 3 C-4.27 3 -10.54 3 -17 3 C-16.67 2.34 -16.34 1.68 -16 1 C-12.91015625 0.5859375 -12.91015625 0.5859375 -9.0625 0.375 C-7.79535156 0.30023437 -6.52820313 0.22546875 -5.22265625 0.1484375 C-3.48291236 0.06830384 -1.74158842 0 0 0 Z " fill="#E6D3AB" transform="translate(88,16)"/>
<path d="M0 0 C1.98 0.495 1.98 0.495 4 1 C4.66 3.64 5.32 6.28 6 9 C5.01 8.34 4.02 7.68 3 7 C2.01 8.485 2.01 8.485 1 10 C0.63720544 8.71073008 0.28503302 7.41846728 -0.0625 6.125 C-0.35833984 5.04605469 -0.35833984 5.04605469 -0.66015625 3.9453125 C-1 2 -1 2 0 0 Z " fill="#84734E" transform="translate(63,61)"/>
<path d="M0 0 C-0.33 0.99 -0.66 1.98 -1 3 C-2.32 2.67 -3.64 2.34 -5 2 C-5 3.32 -5 4.64 -5 6 C-6.65 6.33 -8.3 6.66 -10 7 C-10 6.01 -10 5.02 -10 4 C-10.66 3.67 -11.32 3.34 -12 3 C-7.77050005 0.58314288 -4.87664009 -0.34833144 0 0 Z " fill="#DCC99E" transform="translate(84,50)"/>
<path d="M0 0 C0.33 0 0.66 0 1 0 C1 2.31 1 4.62 1 7 C-0.32 7 -1.64 7 -3 7 C-4.68698082 7.61344757 -6.35965807 8.27095914 -8 9 C-8 7.35 -8 5.7 -8 4 C-4.535 3.505 -4.535 3.505 -1 3 C-0.67 2.01 -0.34 1.02 0 0 Z " fill="#A08F6B" transform="translate(49,101)"/>
<path d="M0 0 C0.33 0.66 0.66 1.32 1 2 C2.98 1.67 4.96 1.34 7 1 C7 1.99 7 2.98 7 4 C7.99 4.33 8.98 4.66 10 5 C9.01 5.495 9.01 5.495 8 6 C7.34227572 9.02934491 7.34227572 9.02934491 7 12 C6.67 12 6.34 12 6 12 C5.87625 11.2575 5.7525 10.515 5.625 9.75 C5.02877475 7.1266089 4.50802614 5.22235432 3 3 C0.94999129 2.19471111 0.94999129 2.19471111 -1 2 C-0.67 1.34 -0.34 0.68 0 0 Z " fill="#CFBC89" transform="translate(33,75)"/>
<path d="M0 0 C0.33 0 0.66 0 1 0 C1.33 5.94 1.66 11.88 2 18 C0.02 18.66 -1.96 19.32 -4 20 C-3.525625 19.113125 -3.05125 18.22625 -2.5625 17.3125 C-0.1668051 11.84308334 -0.25661017 5.88433663 0 0 Z " fill="#453F2D" transform="translate(89,104)"/>
<path d="M0 0 C0.33 0 0.66 0 1 0 C1.33 3.63 1.66 7.26 2 11 C2.99 10.34 3.98 9.68 5 9 C4.67 11.31 4.34 13.62 4 16 C2.35 16 0.7 16 -1 16 C-0.67 10.72 -0.34 5.44 0 0 Z " fill="#585346" transform="translate(112,53)"/>
<path d="M0 0 C-1.08203125 2.015625 -1.08203125 2.015625 -3 4 C-6.13671875 4.171875 -6.13671875 4.171875 -9.6875 3.75 C-11.45673828 3.55664062 -11.45673828 3.55664062 -13.26171875 3.359375 C-14.16535156 3.24078125 -15.06898437 3.1221875 -16 3 C-16 2.67 -16 2.34 -16 2 C-15.30132812 1.86722656 -14.60265625 1.73445312 -13.8828125 1.59765625 C-12.51769531 1.33275391 -12.51769531 1.33275391 -11.125 1.0625 C-10.22007813 0.88847656 -9.31515625 0.71445313 -8.3828125 0.53515625 C-2.56875 -0.770625 -2.56875 -0.770625 0 0 Z " fill="#D0C19E" transform="translate(90,129)"/>
<path d="M0 0 C0.33 0 0.66 0 1 0 C1 2.97 1 5.94 1 9 C-0.65 9.66 -2.3 10.32 -4 11 C-4.33 9.68 -4.66 8.36 -5 7 C-4.01 6.34 -3.02 5.68 -2 5 C-2 4.01 -2 3.02 -2 2 C-1.34 2 -0.68 2 0 2 C0 1.34 0 0.68 0 0 Z " fill="#D7C190" transform="translate(37,110)"/>
<path d="M0 0 C0.99 0 1.98 0 3 0 C3 0.99 3 1.98 3 3 C3.66 3 4.32 3 5 3 C4.1875 5.4375 4.1875 5.4375 3 8 C2.01 8.33 1.02 8.66 0 9 C0 6.03 0 3.06 0 0 Z " fill="#7C6D47" transform="translate(49,63)"/>
<path d="M0 0 C0.66 0.33 1.32 0.66 2 1 C1.34 2.32 0.68 3.64 0 5 C-0.66 5 -1.32 5 -2 5 C-1.814375 5.70125 -1.62875 6.4025 -1.4375 7.125 C-0.94843024 10.33888698 -1.33768442 12.83560336 -2 16 C-2.33 16 -2.66 16 -3 16 C-3.06058594 15.39671875 -3.12117188 14.7934375 -3.18359375 14.171875 C-3.30927734 12.97304688 -3.30927734 12.97304688 -3.4375 11.75 C-3.51871094 10.96109375 -3.59992188 10.1721875 -3.68359375 9.359375 C-3.97634993 7.17635361 -4.42064419 5.1226818 -5 3 C-4.360625 2.690625 -3.72125 2.38125 -3.0625 2.0625 C-1.06389179 1.1654837 -1.06389179 1.1654837 0 0 Z " fill="#D1C3A5" transform="translate(109,43)"/>
<path d="M0 0 C0.66 0 1.32 0 2 0 C2 0.66 2 1.32 2 2 C3.65 2 5.3 2 7 2 C7.33 3.65 7.66 5.3 8 7 C7.67 6.34 7.34 5.68 7 5 C6.01 5 5.02 5 4 5 C3.67 6.32 3.34 7.64 3 9 C2.34 8.67 1.68 8.34 1 8 C1.33 6.68 1.66 5.36 2 4 C1.34 3.67 0.68 3.34 0 3 C0 2.01 0 1.02 0 0 Z " fill="#E2D2A9" transform="translate(53,96)"/>
<path d="M0 0 C0.33 0 0.66 0 1 0 C0.5317879 4.77576339 -0.24331998 8.04476345 -3 12 C-4.2380014 8.42355152 -3.74926071 5.66305234 -3 2 C-2.01 2 -1.02 2 0 2 C0 1.34 0 0.68 0 0 Z " fill="#282319" transform="translate(114,67)"/>
<path d="M0 0 C0.66 0 1.32 0 2 0 C2 0.66 2 1.32 2 2 C2.99 2.66 3.98 3.32 5 4 C4.67 5.32 4.34 6.64 4 8 C1.36 6.35 -1.28 4.7 -4 3 C-2.68 2.67 -1.36 2.34 0 2 C0 1.34 0 0.68 0 0 Z " fill="#E1D2AD" transform="translate(99,19)"/>
<path d="M0 0 C1.32 0 2.64 0 4 0 C2.98823563 3.40320742 2.35156418 4.75725331 -0.625 6.8125 C-1.40875 7.204375 -2.1925 7.59625 -3 8 C-2.25 2.25 -2.25 2.25 0 0 Z " fill="#EBDAB4" transform="translate(98,98)"/>
<path d="M0 0 C1.32 1.32 2.64 2.64 4 4 C3 6 2 8 1 10 C0.01 10 -0.98 10 -2 10 C-2 9.01 -2 8.02 -2 7 C-1.34 7 -0.68 7 0 7 C-0.185625 6.030625 -0.37125 5.06125 -0.5625 4.0625 C-0.706875 3.051875 -0.85125 2.04125 -1 1 C-0.67 0.67 -0.34 0.34 0 0 Z " fill="#F3DEB3" transform="translate(108,84)"/>
<path d="M0 0 C0.33 0 0.66 0 1 0 C1 1.65 1 3.3 1 5 C1.66 5.33 2.32 5.66 3 6 C2.67 6.33 2.34 6.66 2 7 C1.76924918 8.34747084 1.58846937 9.70377565 1.4375 11.0625 C1.293125 12.361875 1.14875 13.66125 1 15 C0.34 15 -0.32 15 -1 15 C-1.144375 14.21625 -1.28875 13.4325 -1.4375 12.625 C-1.87798925 10.03578982 -1.87798925 10.03578982 -3 8 C-2.34 7.67 -1.68 7.34 -1 7 C-0.59270772 4.67843403 -0.25561323 2.3431213 0 0 Z " fill="#4F4021" transform="translate(40,80)"/>
<path d="M0 0 C0.33 0 0.66 0 1 0 C1 3.3 1 6.6 1 10 C-0.32 10 -1.64 10 -3 10 C-3 7.36 -3 4.72 -3 2 C-2.67 3.32 -2.34 4.64 -2 6 C-1.34 6 -0.68 6 0 6 C0 4.02 0 2.04 0 0 Z " fill="#272013" transform="translate(76,98)"/>
<path d="M0 0 C0.99 0 1.98 0 3 0 C3 2.97 3 5.94 3 9 C2.01 9 1.02 9 0 9 C0 6.03 0 3.06 0 0 Z " fill="#29241B" transform="translate(60,111)"/>
<path d="M0 0 C2.875 -0.1875 2.875 -0.1875 6 0 C6.66 0.99 7.32 1.98 8 3 C7.34 3 6.68 3 6 3 C5.34 4.32 4.68 5.64 4 7 C0 2.25 0 2.25 0 0 Z " fill="#EFDCB5" transform="translate(103,24)"/>
<path d="M0 0 C0.103125 0.639375 0.20625 1.27875 0.3125 1.9375 C0.539375 2.618125 0.76625 3.29875 1 4 C1.99 4.33 2.98 4.66 4 5 C3.01 5.495 3.01 5.495 2 6 C2.33 7.32 2.66 8.64 3 10 C2.34 10 1.68 10 1 10 C1 8.68 1 7.36 1 6 C0.01 6 -0.98 6 -2 6 C-2.33 5.01 -2.66 4.02 -3 3 C-2.01 2.67 -1.02 2.34 0 2 C0 1.34 0 0.68 0 0 Z " fill="#E8D4A2" transform="translate(51,56)"/>
<path d="M0 0 C1.98 0 3.96 0 6 0 C6 0.99 6 1.98 6 3 C5.01 3.495 5.01 3.495 4 4 C3.34786708 6.02463255 3.34786708 6.02463255 3 8 C2.34 7.67 1.68 7.34 1 7 C1.33 6.34 1.66 5.68 2 5 C1.34 5 0.68 5 0 5 C0 3.35 0 1.7 0 0 Z " fill="#D4BF93" transform="translate(49,45)"/>
<path d="M0 0 C0.66 0.99 1.32 1.98 2 3 C2.66 2.67 3.32 2.34 4 2 C3.34 3.65 2.68 5.3 2 7 C0.125 6.8125 0.125 6.8125 -2 6 C-3.25 3.4375 -3.25 3.4375 -4 1 C-2.68 0.67 -1.36 0.34 0 0 Z " fill="#EDDCB5" transform="translate(105,40)"/>
<path d="M0 0 C5.75 3.625 5.75 3.625 8 7 C7.01 7 6.02 7 5 7 C4.5875 6.525625 4.175 6.05125 3.75 5.5625 C1.12475166 3.21852827 -1.58502942 3.32216704 -5 3 C-5 2.67 -5 2.34 -5 2 C-3.35 2 -1.7 2 0 2 C0 1.34 0 0.68 0 0 Z " fill="#3B3529" transform="translate(100,25)"/>
<path d="M0 0 C0.33 1.32 0.66 2.64 1 4 C0.34 4 -0.32 4 -1 4 C-0.67 5.65 -0.34 7.3 0 9 C-0.99 9 -1.98 9 -3 9 C-3.103125 8.38125 -3.20625 7.7625 -3.3125 7.125 C-3.87525373 4.63473516 -3.87525373 4.63473516 -7 3 C-5.5459375 2.814375 -5.5459375 2.814375 -4.0625 2.625 C-2.5465625 2.315625 -2.5465625 2.315625 -1 2 C-0.67 1.34 -0.34 0.68 0 0 Z " fill="#EBD4A0" transform="translate(52,91)"/>
<path d="M0 0 C0.33 0 0.66 0 1 0 C1 3.3 1 6.6 1 10 C-0.32 9.67 -1.64 9.34 -3 9 C-2.67 7.35 -2.34 5.7 -2 4 C-1.34 4 -0.68 4 0 4 C0 2.68 0 1.36 0 0 Z " fill="#342E21" transform="translate(105,50)"/>
<path d="M0 0 C0.33 0 0.66 0 1 0 C1.19335938 0.61488281 1.38671875 1.22976562 1.5859375 1.86328125 C1.84632812 2.67152344 2.10671875 3.47976562 2.375 4.3125 C2.63023438 5.11300781 2.88546875 5.91351563 3.1484375 6.73828125 C3.98831811 9.22724528 3.98831811 9.22724528 6 12 C4.35 11.67 2.7 11.34 1 11 C-0.28317892 7.15046324 -0.06643637 4.05261865 0 0 Z " fill="#3B3527" transform="translate(63,112)"/>
<path d="M0 0 C0.33 0 0.66 0 1 0 C1.22151549 1.79008467 1.42682213 3.58218162 1.625 5.375 C1.74101563 6.37273437 1.85703125 7.37046875 1.9765625 8.3984375 C1.98429687 9.25695312 1.99203125 10.11546875 2 11 C1.34 11.66 0.68 12.32 0 13 C-0.99 12.67 -1.98 12.34 -3 12 C-2.34 11.01 -1.68 10.02 -1 9 C-0.54605448 6.72087062 -0.54605448 6.72087062 -0.375 4.3125 C-0.30023438 3.50425781 -0.22546875 2.69601563 -0.1484375 1.86328125 C-0.09945312 1.24839844 -0.05046875 0.63351563 0 0 Z " fill="#EAD7AC" transform="translate(58,112)"/>
<path d="M0 0 C0.66 0 1.32 0 2 0 C2.33 2.97 2.66 5.94 3 9 C1 8 1 8 0 5 C-0.99 5 -1.98 5 -3 5 C-3 4.01 -3 3.02 -3 2 C-2.01 2 -1.02 2 0 2 C0 1.34 0 0.68 0 0 Z " fill="#473B1C" transform="translate(52,84)"/>
<path d="M0 0 C1.16306443 3.54950034 0.92365049 6.55823948 0.5625 10.25 C0.40974609 11.86648437 0.40974609 11.86648437 0.25390625 13.515625 C0.17011719 14.33546875 0.08632812 15.1553125 0 16 C-0.33 16 -0.66 16 -1 16 C-1.33 11.05 -1.66 6.1 -2 1 C-1.34 0.67 -0.68 0.34 0 0 Z " fill="#F2E2C0" transform="translate(119,46)"/>
<path d="M0 0 C2.31 0.33 4.62 0.66 7 1 C6.67 2.32 6.34 3.64 6 5 C4.35 4.67 2.7 4.34 1 4 C0.67 2.68 0.34 1.36 0 0 Z " fill="#282418" transform="translate(87,34)"/>
<path d="M0 0 C0.66 0 1.32 0 2 0 C2.33 3.3 2.66 6.6 3 10 C2.01 10.33 1.02 10.66 0 11 C0 7.37 0 3.74 0 0 Z " fill="#5D4B2A" transform="translate(33,102)"/>
<path d="M0 0 C-0.33 2.31 -0.66 4.62 -1 7 C-1.99 7.33 -2.98 7.66 -4 8 C-4.1875 5.125 -4.1875 5.125 -4 2 C-1 0 -1 0 0 0 Z " fill="#26231D" transform="translate(93,67)"/>
<path d="M0 0 C1.5 1.25 1.5 1.25 3 3 C3 4.32 3 5.64 3 7 C1.68 7 0.36 7 -1 7 C-1.33 5.68 -1.66 4.36 -2 3 C-1.34 3 -0.68 3 0 3 C0 2.01 0 1.02 0 0 Z " fill="#E6D7B7" transform="translate(109,45)"/>
<path d="M0 0 C0.66 0 1.32 0 2 0 C2 0.66 2 1.32 2 2 C2.66 2.33 3.32 2.66 4 3 C2.68 4.32 1.36 5.64 0 7 C-0.66 6.67 -1.32 6.34 -2 6 C-1.125 1.125 -1.125 1.125 0 0 Z " fill="#E7D4A7" transform="translate(60,34)"/>
<path d="M0 0 C0.66 0 1.32 0 2 0 C2 1.32 2 2.64 2 4 C2.66 4.33 3.32 4.66 4 5 C3.34 5.66 2.68 6.32 2 7 C2 6.34 2 5.68 2 5 C1.34 5 0.68 5 0 5 C0 5.66 0 6.32 0 7 C-0.66 7 -1.32 7 -2 7 C-1.125 1.125 -1.125 1.125 0 0 Z " fill="#DBC38C" transform="translate(45,32)"/>
<path d="M0 0 C1.42944945 2.35438733 2.08661261 3.48032433 1.625 6.25 C1.41875 6.8275 1.2125 7.405 1 8 C0.67 7.34 0.34 6.68 0 6 C-0.99 6.33 -1.98 6.66 -3 7 C-1.125 1.125 -1.125 1.125 0 0 Z " fill="#EBDAB0" transform="translate(93,120)"/>
<path d="M0 0 C1.65 0.33 3.3 0.66 5 1 C4.67 2.98 4.34 4.96 4 7 C2.35 6.01 0.7 5.02 -1 4 C-0.67 2.68 -0.34 1.36 0 0 Z " fill="#DAC491" transform="translate(34,88)"/>
<path d="M0 0 C0.66 0.33 1.32 0.66 2 1 C2 2.98 2 4.96 2 7 C1.34 7 0.68 7 0 7 C-0.33 7.66 -0.66 8.32 -1 9 C-1.625 5.625 -1.625 5.625 -2 2 C-1.34 1.34 -0.68 0.68 0 0 Z " fill="#221E16" transform="translate(103,47)"/>
<path d="M0 0 C2.0625 0.4375 2.0625 0.4375 4 1 C3.67 2.98 3.34 4.96 3 7 C2.01 6.67 1.02 6.34 0 6 C-0.38218767 4.34385343 -0.71395102 2.67542976 -1 1 C-0.67 0.67 -0.34 0.34 0 0 Z " fill="#EBD4A1" transform="translate(64,28)"/>
<path d="M0 0 C-1.5 1.125 -1.5 1.125 -4 2 C-6.7773082 1.57598348 -9.29639783 0.81108065 -12 0 C-12 -0.33 -12 -0.66 -12 -1 C-7.48281619 -2.36884358 -4.41225737 -1.47075246 0 0 Z " fill="#CEC09F" transform="translate(97,20)"/>
<path d="M0 0 C0 1.32 0 2.64 0 4 C-0.99 4 -1.98 4 -3 4 C-3.66 5.32 -4.32 6.64 -5 8 C-5.1875 5.125 -5.1875 5.125 -5 2 C-2 0 -2 0 0 0 Z " fill="#242118" transform="translate(79,91)"/>
<path d="M0 0 C0.99 0.33 1.98 0.66 3 1 C3.1875 3.3125 3.1875 3.3125 3 6 C2.01 6.99 1.02 7.98 0 9 C0 6.03 0 3.06 0 0 Z " fill="#E5D4AD" transform="translate(41,87)"/>
<path d="M0 0 C0.66 0.33 1.32 0.66 2 1 C2.33 1.99 2.66 2.98 3 4 C1.68 5.32 0.36 6.64 -1 8 C-1.625 5.125 -1.625 5.125 -2 2 C-1.34 1.34 -0.68 0.68 0 0 Z " fill="#262218" transform="translate(106,79)"/>
<path d="M0 0 C1.32 0.33 2.64 0.66 4 1 C3.34 1 2.68 1 2 1 C2 1.66 2 2.32 2 3 C2.66 3.33 3.32 3.66 4 4 C3.34 4 2.68 4 2 4 C2.83333333 6.16666667 2.83333333 6.16666667 5 7 C3.02 7.99 3.02 7.99 1 9 C0.67 6.03 0.34 3.06 0 0 Z " fill="#604D25" transform="translate(43,63)"/>
<path d="M0 0 C2.52845528 1.26422764 2.76422764 2.52845528 4 5 C3.34 5 2.68 5 2 5 C1.67 5.99 1.34 6.98 1 8 C0.34 8 -0.32 8 -1 8 C-1.04241723 5.66705225 -1.04092937 3.33297433 -1 1 C-0.67 0.67 -0.34 0.34 0 0 Z " fill="#CFB275" transform="translate(4,48)"/>
<path d="M0 0 C-1.32 0.33 -2.64 0.66 -4 1 C-4.33 2.32 -4.66 3.64 -5 5 C-5.66 4.34 -6.32 3.68 -7 3 C-9.57061311 2.35232207 -9.57061311 2.35232207 -12 2 C-12 1.67 -12 1.34 -12 1 C-7.9472484 0.01751476 -4.16138263 -0.08159574 0 0 Z " fill="#C1B08A" transform="translate(84,36)"/>
<path d="M0 0 C0 0.99 0 1.98 0 3 C-2.97 2.505 -2.97 2.505 -6 2 C-6 1.34 -6 0.68 -6 0 C-3.50907189 -1.24546405 -2.58919267 -0.7767578 0 0 Z " fill="#E6CE99" transform="translate(56,79)"/>
<path d="M0 0 C1.98 0.495 1.98 0.495 4 1 C3.67 2.65 3.34 4.3 3 6 C1.68 5.34 0.36 4.68 -1 4 C-0.67 2.68 -0.34 1.36 0 0 Z " fill="#F1DDB5" transform="translate(68,63)"/>
<path d="M0 0 C0 1.32 0 2.64 0 4 C0.99 4.33 1.98 4.66 3 5 C-0.375 5.1875 -0.375 5.1875 -4 5 C-4.66 4.01 -5.32 3.02 -6 2 C-3 0 -3 0 0 0 Z " fill="#EED9A9" transform="translate(81,26)"/>
<path d="M0 0 C0.33 1.32 0.66 2.64 1 4 C-1.57213134 5.61949011 -2.67669159 6.04408751 -5.75 5.625 C-6.4925 5.41875 -7.235 5.2125 -8 5 C-5.37352812 3.24901874 -2.71224618 1.61268692 0 0 Z " fill="#DFCE9E" transform="translate(84,120)"/>
<path d="M0 0 C0.33 0.99 0.66 1.98 1 3 C3.01508358 3.73323796 3.01508358 3.73323796 5 4 C4.67 4.66 4.34 5.32 4 6 C1.03 5.505 1.03 5.505 -2 5 C-2 4.01 -2 3.02 -2 2 C-1.34 2 -0.68 2 0 2 C0 1.34 0 0.68 0 0 Z " fill="#E1D0AC" transform="translate(59,105)"/>
<path d="M0 0 C0.66 1.32 1.32 2.64 2 4 C1.01 5.485 1.01 5.485 0 7 C-1.32 6.34 -2.64 5.68 -4 5 C-2.68 3.35 -1.36 1.7 0 0 Z " fill="#CFC096" transform="translate(57,32)"/>
<path d="M0 0 C1.9375 0.75 1.9375 0.75 4 2 C4.75 4.125 4.75 4.125 5 6 C4.01 6.495 4.01 6.495 3 7 C2.67 6.01 2.34 5.02 2 4 C0.68 4 -0.64 4 -2 4 C-1.33333333 2.66666667 -0.66666667 1.33333333 0 0 Z " fill="#EDDCB6" transform="translate(100,32)"/>
<path d="M0 0 C0.99 0.33 1.98 0.66 3 1 C3 2.32 3 3.64 3 5 C1.35 5 -0.3 5 -2 5 C-1.34 3.35 -0.68 1.7 0 0 Z " fill="#2A261B" transform="translate(99,88)"/>
<path d="M0 0 C-1.07401108 2.91517292 -1.77810176 4.77810176 -4 7 C-4.33 5.02 -4.66 3.04 -5 1 C-3 0 -3 0 0 0 Z " fill="#292217" transform="translate(84,84)"/>
<path d="M0 0 C1.32 0 2.64 0 4 0 C3.42655063 2.86724686 3.1385485 3.8614515 1 6 C0.34 4.35 -0.32 2.7 -1 1 C-0.67 0.67 -0.34 0.34 0 0 Z " fill="#DFD0A4" transform="translate(77,80)"/>
<path d="M0 0 C1.32 1.65 2.64 3.3 4 5 C3.01 5.99 2.02 6.98 1 8 C0.67 7.34 0.34 6.68 0 6 C0.33 5.34 0.66 4.68 1 4 C0.34 4 -0.32 4 -1 4 C-0.67 2.68 -0.34 1.36 0 0 Z " fill="#DFCFAB" transform="translate(105,36)"/>
<path d="M0 0 C1 3 1 3 -0.4375 6.1875 C-1.2109375 7.5796875 -1.2109375 7.5796875 -2 9 C-2.66 8.67 -3.32 8.34 -4 8 C-2.87548273 5.0280615 -1.77706209 2.66559313 0 0 Z " fill="#3B3326" transform="translate(94,95)"/>
<path d="M0 0 C0.33 0 0.66 0 1 0 C1 1.98 1 3.96 1 6 C1.66 6.33 2.32 6.66 3 7 C2.34 7.66 1.68 8.32 1 9 C0.01 8.01 -0.98 7.02 -2 6 C-1.34 4.02 -0.68 2.04 0 0 Z " fill="#39332A" transform="translate(88,69)"/>
<path d="M0 0 C0.99 0 1.98 0 3 0 C3 2.31 3 4.62 3 7 C2.67 6.01 2.34 5.02 2 4 C1.01 4.33 0.02 4.66 -1 5 C-0.67 3.35 -0.34 1.7 0 0 Z " fill="#C7B48D" transform="translate(46,65)"/>
<path d="M0 0 C0.33 0 0.66 0 1 0 C1 2.97 1 5.94 1 9 C1.66 9 2.32 9 3 9 C3 9.99 3 10.98 3 12 C2.01 11.67 1.02 11.34 0 11 C0 7.37 0 3.74 0 0 Z " fill="#DDCEAF" transform="translate(117,53)"/>
<path d="M0 0 C0.66 0.33 1.32 0.66 2 1 C1.34 3.64 0.68 6.28 0 9 C-0.33 9 -0.66 9 -1 9 C-1.33 6.36 -1.66 3.72 -2 1 C-1.34 0.67 -0.68 0.34 0 0 Z " fill="#1E1D18" transform="translate(92,55)"/>
<path d="M0 0 C0.66 0.33 1.32 0.66 2 1 C2 1.66 2 2.32 2 3 C2.99 3.33 3.98 3.66 5 4 C4.01 5.485 4.01 5.485 3 7 C1.68 5.68 0.36 4.36 -1 3 C-0.67 2.01 -0.34 1.02 0 0 Z " fill="#DACBA9" transform="translate(96,33)"/>
</svg>
